<svg xmlns="http://www.w3.org/2000/svg" viewBox="0 0 463.65 466.9"><g id="Layer_2" data-name="Layer 2"><g id="Layer_1-2" data-name="Layer 1"><path d="M119.33,69.57c0-4.57.11-8.39,0-12.2-.56-15.65,6.2-27.65,18.46-36.79C151,10.69,166.33,5.66,182.39,3c31.13-5.26,61.86-4.12,91.18,8.59,8.08,3.5,15.63,8.91,22.34,14.7,8.39,7.26,12.3,17.21,12.15,28.51-.05,4.65,0,9.3,0,14.38h29.09C338,62,338.24,54.81,339.89,48,347,18.26,374-1.2,405.27.4,433.52,1.84,458.94,25.66,463,54.53a62.42,62.42,0,0,1-32.76,64.25c-3.29,1.72-4.36,3.54-4.35,7.21q.16,115.47.06,231c0,24.8-14.88,44.79-37.91,50.72a65.39,65.39,0,0,1-15.81,1.72c-28.16.16-56.32.08-84.48.08H281.4V452c6.38,0,12.68-.15,19,0,5,.16,7.74,2.94,7.73,7.3s-2.79,7-7.78,7.22c-.66,0-1.33,0-2,0q-67.48.17-135,.32c-12.16,0-24.32-.19-36.48-.32-5.6-.06-8.88-2.74-8.93-7.19s3.17-7.29,8.77-7.39c6-.11,11.93,0,18.12,0V409.47h-6.08q-42.49,0-85,0c-32,0-53.75-21.68-53.76-53.58q0-116.49.06-233C.1,91.65,21.92,69.78,53.2,69.59c20-.12,40,0,60,0ZM119,84.35H54.14c-24.32,0-39.3,14.91-39.31,39.15q0,94.2,0,188.4v5.65H81.28c0-3.05,0-5.69,0-8.33.76-36,23.61-65.87,57.87-74.06,10.05-2.4,20.8-1.81,31.21-2.69,1.51-.13,3.62-.38,4.32-1.38,3.15-4.44,0-18.08-4.52-21-16.83-10.92-28.52-25.82-34.41-45a9.28,9.28,0,0,0-6.2-6.75c-22.33-8.76-30.29-37.18-15-55.49C119.42,97,119.55,91.42,119,84.35Zm188,0c1.2,5.57.69,11.52,3.42,14.61,18.31,20.75,11.66,50-14.12,60.2a7,7,0,0,0-3.69,3.87,83.19,83.19,0,0,1-36.81,48.08c-1.15.72-2.61,2-2.75,3.11-.59,4.78-.88,9.6-1,14.42-.06,2.74,1.4,4.09,4.45,3.92,4.32-.24,8.66-.11,13,0A76.33,76.33,0,0,1,343,293.14c1.63,7.91,1.77,16.13,2.62,24.42H411.2V126.68c-8.69-.79-17.72.17-25.29-2.71-10.55-4-19.6-2-29.11,1.7-1.54.6-3.15,1-4.71,1.64-3.74,1.41-7.83,1.58-9.94-1.89a14.56,14.56,0,0,1-1.52-9.63c1.14-5.66,3.47-11.09,5.29-16.62.67-2.06-3-13.4-4.72-14.45a4,4,0,0,0-1.93-.34C329.12,84.36,319,84.36,307,84.36ZM146.73,102.81c0,13.87-.35,27.36.07,40.83,1.11,35.8,31.32,64.67,67.09,64.49,36.34-.19,66.48-29.67,67-65.76.23-17.48.07-35,0-52.46,0-1.4-.11-3.37-1-4.12C272,79,263.83,72.47,255.58,65.71c-7.65,9.37-16.39,16.8-27.17,20.68a258.82,258.82,0,0,1-37.73,10.79C176.38,100,161.72,101,146.73,102.81ZM328,317.68c0-5,.3-9.84,0-14.59-2.08-28.58-27.68-53.06-56.24-53.8-1.61,0-3.78.43-4.79,1.51-14.33,15.32-28.49,30.82-42.73,46.23-7.13,7.71-13.79,7.75-20.87.15-12.49-13.4-25.73-26.22-37.11-40.52-6.42-8.06-13-8.12-21.21-6.22-1.3.3-2.59.65-3.87,1-28.25,7.87-48.22,38.76-42.64,66.24ZM392.68,39.07C383.1,39,376.35,44,373.84,52c-1.82,5.75-.93,11.22,1.81,16.41,4.88,9.25,12.92,15.09,22.09,19.43a7.86,7.86,0,0,0,6.18-.18c10.8-5.61,19.55-13.53,23.64-25.24a17.53,17.53,0,0,0-17.28-23.19C404,39.49,397.72,41.39,392.68,39.07Zm-179,231.29,18.73-20.11c-2.8-8.21-5.22-15.32-7.63-22.41H202.71c-2.59,7.57-5,14.66-7.69,22.44Zm14.11,93.38a14.73,14.73,0,1,0-14.61,14.68A14.75,14.75,0,0,0,227.84,363.74Z"/><path d="M213.77,189c-5.93-2.66-11.51-4.65-16.56-7.57a6.61,6.61,0,0,1-1.83-10c2.6-3.39,6.18-4.37,9.67-1.95,6,4.18,11.49,4.11,17.47,0,3.49-2.41,7.09-1.42,9.66,2a6.62,6.62,0,0,1-1.88,10C225.26,184.36,219.68,186.34,213.77,189Z"/><path d="M179.61,107.32A11.19,11.19,0,0,1,191,118.67a11.51,11.51,0,0,1-11.37,11.52,11.82,11.82,0,0,1-11.49-11.51A11.42,11.42,0,0,1,179.61,107.32Z"/><path d="M236.61,118.38a11.15,11.15,0,0,1,11.62-11.07A11.26,11.26,0,0,1,259.31,119a11.35,11.35,0,1,1-22.7-.59Z"/><path d="M220.89,138.74a37.59,37.59,0,0,1-.07,6.46,6.67,6.67,0,0,1-7,5.87c-3.67,0-6.59-2-7-5.79a67.2,67.2,0,0,1,0-12.92c.36-4,3.14-6.15,7.2-6s6.43,2.45,6.92,6.44a49.51,49.51,0,0,1,0,6Z"/></g></g></svg>